<svg xmlns="http://www.w3.org/2000/svg" xml:space="preserve" width="72" height="72" id="sun">
  <path d="M36.564 14.645c-11.671 0-21.167 9.495-21.167 21.166 0 11.671 9.495 21.166 21.167 21.166 11.672 0 21.168-9.494 21.168-21.166 0-11.671-9.496-21.166-21.168-21.166zm0 38.334c-9.465 0-17.167-7.701-17.167-17.167 0-9.466 7.701-17.166 17.167-17.166 9.467 0 17.168 7.7 17.168 17.166 0 9.467-7.701 17.167-17.168 17.167z"></path>
  <path d="M34.666 22.306a11.598 11.598 0 0 0-9.929 5.655 1.002 1.002 0 0 0 1.721 1.022 9.585 9.585 0 0 1 8.208-4.677 1 1 0 1 0 0-2zM24.631 30.464a1.006 1.006 0 0 0-1.202.745c-.195.826-.304 1.337-.304 2.27a1 1 0 1 0 2 0c0-.716.077-1.073.251-1.813a1 1 0 0 0-.745-1.202zM37.37 59.5a2 2 0 0 0-2 2v6a2 2 0 0 0 4 0v-6a2 2 0 0 0-2-2zM37.37 12.5a2 2 0 0 0 2-2v-6a2 2 0 0 0-4 0v6a2 2 0 0 0 2 2zM17.055 52.428l-4.242 4.242a2 2 0 1 0 2.828 2.828l4.242-4.242a2 2 0 1 0-2.828-2.828zM54.531 19.78c.512 0 1.023-.195 1.414-.586l4.242-4.242a2 2 0 1 0-2.828-2.828l-4.242 4.242a2 2 0 0 0 1.414 3.414zM17.055 19.194c.391.391.902.586 1.414.586a2 2 0 0 0 1.414-3.414l-4.242-4.242a2 2 0 1 0-2.828 2.828l4.242 4.242zM55.945 52.428a2 2 0 1 0-2.828 2.828l4.242 4.244c.391.391.902.586 1.414.586s1.023-.195 1.414-.586c.78-.781.78-2.047 0-2.828l-4.242-4.244zM10.5 34.5h-6a2 2 0 0 0 0 4h6a2 2 0 0 0 0-4zM67.5 34.5h-6a2 2 0 0 0 0 4h6a2 2 0 0 0 0-4z"></path>
</svg>